<svg xmlns="http://www.w3.org/2000/svg" viewBox="0 0 880 340" font-family="sans-serif">
  <defs>
    <marker id="hp" markerWidth="9" markerHeight="6" refX="9" refY="3" orient="auto"><polygon points="0 0, 9 3, 0 6" fill="#8e6fbf"/></marker>
  </defs>

  <text x="20" y="22" font-size="14" font-weight="700" fill="#374151">House of Apple 2 &#8212; rewriting the <tspan font-family="monospace">FILE</tspan> at <tspan font-family="monospace">abfd-&gt;iostream</tspan></text>
  <text x="20" y="40" font-size="10.5" fill="#6b7280">Four PI relocations (purple) bend existing pointers into place. Direct OOB writes (grey) set the scalar fields.</text>

  <!-- ===== FILE struct (center) ===== -->
  <rect x="330" y="58" width="220" height="282" rx="5" fill="#ffffff" stroke="#374151" stroke-width="1.4"/>
  <rect x="330" y="58" width="220" height="22" rx="5" fill="#374151"/>
  <text x="440" y="74" font-size="11" font-weight="700" fill="#fff" text-anchor="middle" font-family="monospace">FILE  (fp)</text>

  <g font-family="monospace" font-size="10.5">
    <!-- row 0 _flags -->
    <rect x="331" y="80" width="218" height="28" fill="#f8cecc"/><text x="338" y="98" fill="#7a2020">+0   _flags</text><text x="543" y="98" fill="#7a2020" text-anchor="end">" (gnome-calc&amp;)"</text>
    <!-- row1 -->
    <rect x="331" y="108" width="218" height="24" fill="#f3f4f6"/><text x="338" y="124" fill="#475569">+32  write_base</text><text x="543" y="124" fill="#111" text-anchor="end">1</text>
    <!-- row2 -->
    <rect x="331" y="132" width="218" height="24" fill="#f3f4f6"/><text x="338" y="148" fill="#475569">+40  write_ptr</text><text x="543" y="148" fill="#111" text-anchor="end">2</text>
    <!-- row3 fake vtable base -->
    <rect x="331" y="156" width="218" height="24" fill="#d5e8d4"/><text x="338" y="172" fill="#2d5a2d">+80  [fake vtable]</text><text x="543" y="172" fill="#2d5a2d" text-anchor="end">lock = 0</text>
    <!-- row4 chain -->
    <rect x="331" y="180" width="218" height="24" fill="#f3f4f6"/><text x="338" y="196" fill="#475569">+104 _chain</text><text x="543" y="196" fill="#111" text-anchor="end">0</text>
    <!-- row5 lock PI -->
    <rect x="331" y="204" width="218" height="24" fill="#efe7fb"/><text x="338" y="220" fill="#5a4488">+136 _lock</text><text x="543" y="220" fill="#5a4488" text-anchor="end">&#8594; fp+80</text>
    <!-- row6 wide_data PI -->
    <rect x="331" y="228" width="218" height="24" fill="#efe7fb"/><text x="338" y="244" fill="#5a4488">+160 _wide_data</text><text x="543" y="244" fill="#5a4488" text-anchor="end">&#8594; fp&#8722;88</text>
    <!-- row7 pad5 PI -->
    <rect x="331" y="252" width="218" height="32" fill="#efe7fb"/><text x="338" y="266" fill="#5a4488">+184 __pad5</text><text x="543" y="266" fill="#5a4488" text-anchor="end">= system</text><text x="338" y="279" fill="#8e6fbf" font-size="8.5">= fake vtable +104 (__doallocate)</text>
    <!-- row8 vtable PI -->
    <rect x="331" y="284" width="218" height="26" fill="#efe7fb"/><text x="338" y="301" fill="#5a4488">+216 vtable</text><text x="543" y="301" fill="#5a4488" text-anchor="end">&#8594; _IO_wfile_jumps</text>
  </g>

  <!-- ===== fake _wide_data (left) ===== -->
  <rect x="30" y="150" width="240" height="120" rx="5" fill="#fbfbfd" stroke="#82b366" stroke-width="1.3"/>
  <text x="40" y="168" font-size="10.5" font-weight="700" fill="#2d5a2d" font-family="monospace">fake _wide_data  (fp&#8722;88)</text>
  <g font-family="monospace" font-size="10">
    <text x="40" y="190" fill="#475569">wd+24  _IO_write_base = <tspan fill="#2d6a2d" font-weight="700">0</tspan></text>
    <text x="40" y="212" fill="#475569">wd+48  _IO_buf_base   = <tspan fill="#2d6a2d" font-weight="700">0</tspan></text>
    <text x="40" y="234" fill="#475569">wd+224 _wide_vtable</text>
    <text x="258" y="234" fill="#5a4488" text-anchor="end">&#8594; fp+80</text>
    <text x="40" y="256" fill="#94a3b8" font-size="8">(the two zeros steer the chain to __doallocate)</text>
  </g>

  <!-- ===== fake vtable (right top) ===== -->
  <rect x="620" y="92" width="240" height="80" rx="5" fill="#fbfbfd" stroke="#82b366" stroke-width="1.3"/>
  <text x="630" y="110" font-size="10.5" font-weight="700" fill="#2d5a2d" font-family="monospace">fake vtable  (fp+80)</text>
  <g font-family="monospace" font-size="10">
    <text x="630" y="132" fill="#475569">+0    lock word = 0</text>
    <text x="630" y="154" fill="#475569">+104  __doallocate</text>
    <text x="850" y="154" fill="#7a2020" text-anchor="end" font-weight="700">= system</text>
  </g>

  <!-- ===== _IO_wfile_jumps (right mid) ===== -->
  <rect x="620" y="230" width="240" height="78" rx="5" fill="#fff6ec" stroke="#d6883b" stroke-width="1.3"/>
  <text x="630" y="248" font-size="10.5" font-weight="700" fill="#9a5b18" font-family="monospace">_IO_wfile_jumps  (libc)</text>
  <text x="630" y="268" font-size="9.5" fill="#7a4a14">inside __libc_IO_vtables &#8594;</text>
  <text x="630" y="281" font-size="9.5" fill="#7a4a14">passes glibc&#8217;s vtable check</text>
  <text x="630" y="298" font-size="9.5" fill="#7a4a14">__overflow &#8594; _IO_wfile_overflow</text>

  <!-- ===== PI arrows ===== -->
  <!-- vtable -> _IO_wfile_jumps -->
  <path d="M551,297 C 590,290 595,270 619,268" fill="none" stroke="#8e6fbf" stroke-width="1.8" marker-end="url(#hp)"/>
  <!-- _lock -> fake vtable -->
  <path d="M551,216 C 590,200 596,150 619,134" fill="none" stroke="#8e6fbf" stroke-width="1.8" marker-end="url(#hp)"/>
  <!-- _wide_data -> fake wide_data -->
  <path d="M329,240 C 300,250 290,225 271,212" fill="none" stroke="#8e6fbf" stroke-width="1.8" marker-end="url(#hp)"/>
  <!-- legend -->
  <rect x="30" y="300" width="14" height="10" fill="#efe7fb" stroke="#8e6fbf"/><text x="50" y="309" font-size="9.5" fill="#5a4488">PI reloc (read-modify-write, constant delta)</text>
  <rect x="30" y="316" width="14" height="10" fill="#f8cecc" stroke="#b85450"/><text x="50" y="325" font-size="9.5" fill="#7a2020">direct OOB write</text>
</svg>
